# xmcd
# Track frame offsets:
# 150
# 19907
# 37256
# 47508
# 61304
# 77175
# 90051
# 93779
# 102379
# 114541
# 131941
# 144708
# 155662
# 176455
#
# Disc length: 2504 seconds
# Revision: 0
# Processed by: cddbd v1.4PL0 Copyright (c) Steve Scherf et al.
# Submitted via: VisiTrax 2.9.5.181 - For more info visit www.synapsa.com
#
DISCID=b809c60e
DTITLE=Matti Norlin - Slidin out
DYEAR=2002
DGENRE=Blues
TTITLE0=Not allowed
TTITLE1=Distant as a star
TTITLE2=Groovin
TTITLE3=Cool down
TTITLE4=Slidin´out
TTITLE5=Lack of knowledge
TTITLE6=Rooftop jive
TTITLE7=Midnight drive
TTITLE8=Forgive me
TTITLE9=This day will never return
TTITLE10=Sweet angel
TTITLE11=Suger
TTITLE12=Torture of silence
TTITLE13=Empty
EXTD=
EXTT0=
EXTT1=
EXTT2=
EXTT3=
EXTT4=
EXTT5=
EXTT6=
EXTT7=
EXTT8=
EXTT9=
EXTT10=
EXTT11=
EXTT12=
EXTT13=
PLAYORDER=
